<svg id="visual" viewBox="0 0 1366 1024" width="1366" height="1024" xmlns="http://www.w3.org/2000/svg" xmlns:xlink="http://www.w3.org/1999/xlink" version="1.1"><path d="M1146 1024L1146 1016.5C1146 1009 1146 994 1141.5 979.2C1137 964.3 1128 949.7 1134.8 934.8C1141.7 920 1164.3 905 1164.3 890.2C1164.3 875.3 1141.7 860.7 1123.5 845.8C1105.3 831 1091.7 816 1094 801.2C1096.3 786.3 1114.7 771.7 1123.8 756.8C1133 742 1133 727 1144.3 712.2C1155.7 697.3 1178.3 682.7 1198.8 667.8C1219.3 653 1237.7 638 1244.5 623.2C1251.3 608.3 1246.7 593.7 1246.7 578.8C1246.7 564 1251.3 549 1249 534.2C1246.7 519.3 1237.3 504.7 1232.7 489.8C1228 475 1228 460 1214.3 445.2C1200.7 430.3 1173.3 415.7 1150.7 400.8C1128 386 1110 371 1128.3 356.2C1146.7 341.3 1201.3 326.7 1219.5 311.8C1237.7 297 1219.3 282 1207.8 267.2C1196.3 252.3 1191.7 237.7 1203 222.8C1214.3 208 1241.7 193 1228 178.2C1214.3 163.3 1159.7 148.7 1141.5 133.8C1123.3 119 1141.7 104 1150.8 89.2C1160 74.3 1160 59.7 1153.2 44.8C1146.3 30 1132.7 15 1125.8 7.5L1119 0L1366 0L1366 7.5C1366 15 1366 30 1366 44.8C1366 59.7 1366 74.3 1366 89.2C1366 104 1366 119 1366 133.8C1366 148.7 1366 163.3 1366 178.2C1366 193 1366 208 1366 222.8C1366 237.7 1366 252.3 1366 267.2C1366 282 1366 297 1366 311.8C1366 326.7 1366 341.3 1366 356.2C1366 371 1366 386 1366 400.8C1366 415.7 1366 430.3 1366 445.2C1366 460 1366 475 1366 489.8C1366 504.7 1366 519.3 1366 534.2C1366 549 1366 564 1366 578.8C1366 593.7 1366 608.3 1366 623.2C1366 638 1366 653 1366 667.8C1366 682.7 1366 697.3 1366 712.2C1366 727 1366 742 1366 756.8C1366 771.7 1366 786.3 1366 801.2C1366 816 1366 831 1366 845.8C1366 860.7 1366 875.3 1366 890.2C1366 905 1366 920 1366 934.8C1366 949.7 1366 964.3 1366 979.2C1366 994 1366 1009 1366 1016.5L1366 1024Z" fill="#ff8b50"></path><path d="M1064 1024L1061.8 1016.5C1059.7 1009 1055.3 994 1053.2 979.2C1051 964.3 1051 949.7 1051 934.8C1051 920 1051 905 1037.3 890.2C1023.7 875.3 996.3 860.7 978.2 845.8C960 831 951 816 964.7 801.2C978.3 786.3 1014.7 771.7 1032.8 756.8C1051 742 1051 727 1051 712.2C1051 697.3 1051 682.7 1064.7 667.8C1078.3 653 1105.7 638 1128.3 623.2C1151 608.3 1169 593.7 1169 578.8C1169 564 1151 549 1135.2 534.2C1119.3 519.3 1105.7 504.7 1112.5 489.8C1119.3 475 1146.7 460 1137.5 445.2C1128.3 430.3 1082.7 415.7 1059.8 400.8C1037 386 1037 371 1048.3 356.2C1059.7 341.3 1082.3 326.7 1089.2 311.8C1096 297 1087 282 1084.8 267.2C1082.7 252.3 1087.3 237.7 1107.8 222.8C1128.3 208 1164.7 193 1148.7 178.2C1132.7 163.3 1064.3 148.7 1046.2 133.8C1028 119 1060 104 1064.7 89.2C1069.3 74.3 1046.7 59.7 1035.3 44.8C1024 30 1024 15 1024 7.5L1024 0L1120 0L1126.8 7.5C1133.7 15 1147.3 30 1154.2 44.8C1161 59.7 1161 74.3 1151.8 89.2C1142.7 104 1124.3 119 1142.5 133.8C1160.7 148.7 1215.3 163.3 1229 178.2C1242.7 193 1215.3 208 1204 222.8C1192.7 237.7 1197.3 252.3 1208.8 267.2C1220.3 282 1238.7 297 1220.5 311.8C1202.3 326.7 1147.7 341.3 1129.3 356.2C1111 371 1129 386 1151.7 400.8C1174.3 415.7 1201.7 430.3 1215.3 445.2C1229 460 1229 475 1233.7 489.8C1238.3 504.7 1247.7 519.3 1250 534.2C1252.3 549 1247.7 564 1247.7 578.8C1247.7 593.7 1252.3 608.3 1245.5 623.2C1238.7 638 1220.3 653 1199.8 667.8C1179.3 682.7 1156.7 697.3 1145.3 712.2C1134 727 1134 742 1124.8 756.8C1115.7 771.7 1097.3 786.3 1095 801.2C1092.7 816 1106.3 831 1124.5 845.8C1142.7 860.7 1165.3 875.3 1165.3 890.2C1165.3 905 1142.7 920 1135.8 934.8C1129 949.7 1138 964.3 1142.5 979.2C1147 994 1147 1009 1147 1016.5L1147 1024Z" fill="#ff8349"></path><path d="M942 1024L937.3 1016.5C932.7 1009 923.3 994 911.8 979.2C900.3 964.3 886.7 949.7 886.7 934.8C886.7 920 900.3 905 891.3 890.2C882.3 875.3 850.7 860.7 846.2 845.8C841.7 831 864.3 816 889.3 801.2C914.3 786.3 941.7 771.7 959.8 756.8C978 742 987 727 977.8 712.2C968.7 697.3 941.3 682.7 952.7 667.8C964 653 1014 638 1039 623.2C1064 608.3 1064 593.7 1048.2 578.8C1032.3 564 1000.7 549 978 534.2C955.3 519.3 941.7 504.7 953 489.8C964.3 475 1000.7 460 989.3 445.2C978 430.3 919 415.7 894 400.8C869 386 878 371 905.3 356.2C932.7 341.3 978.3 326.7 987.5 311.8C996.7 297 969.3 282 964.7 267.2C960 252.3 978 237.7 991.7 222.8C1005.3 208 1014.7 193 985.2 178.2C955.7 163.3 887.3 148.7 871.3 133.8C855.3 119 891.7 104 907.5 89.2C923.3 74.3 918.7 59.7 923.2 44.8C927.7 30 941.3 15 948.2 7.5L955 0L1025 0L1025 7.5C1025 15 1025 30 1036.3 44.8C1047.7 59.7 1070.3 74.3 1065.7 89.2C1061 104 1029 119 1047.2 133.8C1065.3 148.7 1133.7 163.3 1149.7 178.2C1165.7 193 1129.3 208 1108.8 222.8C1088.3 237.7 1083.7 252.3 1085.8 267.2C1088 282 1097 297 1090.2 311.8C1083.3 326.7 1060.7 341.3 1049.3 356.2C1038 371 1038 386 1060.8 400.8C1083.7 415.7 1129.3 430.3 1138.5 445.2C1147.7 460 1120.3 475 1113.5 489.8C1106.7 504.7 1120.3 519.3 1136.2 534.2C1152 549 1170 564 1170 578.8C1170 593.7 1152 608.3 1129.3 623.2C1106.7 638 1079.3 653 1065.7 667.8C1052 682.7 1052 697.3 1052 712.2C1052 727 1052 742 1033.8 756.8C1015.7 771.7 979.3 786.3 965.7 801.2C952 816 961 831 979.2 845.8C997.3 860.7 1024.7 875.3 1038.3 890.2C1052 905 1052 920 1052 934.8C1052 949.7 1052 964.3 1054.2 979.2C1056.3 994 1060.7 1009 1062.8 1016.5L1065 1024Z" fill="#ff7c43"></path><path d="M832 1024L820.7 1016.5C809.3 1009 786.7 994 779.8 979.2C773 964.3 782 949.7 795.7 934.8C809.3 920 827.7 905 807.2 890.2C786.7 875.3 727.3 860.7 711.3 845.8C695.3 831 722.7 816 761.5 801.2C800.3 786.3 850.7 771.7 878 756.8C905.3 742 909.7 727 902.8 712.2C896 697.3 878 682.7 896.3 667.8C914.7 653 969.3 638 983 623.2C996.7 608.3 969.3 593.7 951 578.8C932.7 564 923.3 549 911.8 534.2C900.3 519.3 886.7 504.7 884.5 489.8C882.3 475 891.7 460 871.2 445.2C850.7 430.3 800.3 415.7 775.2 400.8C750 386 750 371 786.5 356.2C823 341.3 896 326.7 921.2 311.8C946.3 297 923.7 282 905.5 267.2C887.3 252.3 873.7 237.7 882.7 222.8C891.7 208 923.3 193 909.7 178.2C896 163.3 837 148.7 821.2 133.8C805.3 119 832.7 104 841.7 89.2C850.7 74.3 841.3 59.7 841.3 44.8C841.3 30 850.7 15 855.3 7.5L860 0L956 0L949.2 7.5C942.3 15 928.7 30 924.2 44.8C919.7 59.7 924.3 74.3 908.5 89.2C892.7 104 856.3 119 872.3 133.8C888.3 148.7 956.7 163.3 986.2 178.2C1015.7 193 1006.3 208 992.7 222.8C979 237.7 961 252.3 965.7 267.2C970.3 282 997.7 297 988.5 311.8C979.3 326.7 933.7 341.3 906.3 356.2C879 371 870 386 895 400.8C920 415.7 979 430.3 990.3 445.2C1001.7 460 965.3 475 954 489.8C942.7 504.7 956.3 519.3 979 534.2C1001.7 549 1033.3 564 1049.2 578.8C1065 593.7 1065 608.3 1040 623.2C1015 638 965 653 953.7 667.8C942.3 682.7 969.7 697.3 978.8 712.2C988 727 979 742 960.8 756.8C942.7 771.7 915.3 786.3 890.3 801.2C865.3 816 842.7 831 847.2 845.8C851.7 860.7 883.3 875.3 892.3 890.2C901.3 905 887.7 920 887.7 934.8C887.7 949.7 901.3 964.3 912.8 979.2C924.3 994 933.7 1009 938.3 1016.5L943 1024Z" fill="#ff733d"></path><path d="M614 1024L627.7 1016.5C641.3 1009 668.7 994 670.8 979.2C673 964.3 650 949.7 640.8 934.8C631.7 920 636.3 905 613.7 890.2C591 875.3 541 860.7 536.5 845.8C532 831 573 816 627.7 801.2C682.3 786.3 750.7 771.7 768.8 756.8C787 742 755 727 729.8 712.2C704.7 697.3 686.3 682.7 697.7 667.8C709 653 750 638 768.3 623.2C786.7 608.3 782.3 593.7 775.5 578.8C768.7 564 759.3 549 754.7 534.2C750 519.3 750 504.7 747.8 489.8C745.7 475 741.3 460 716.3 445.2C691.3 430.3 645.7 415.7 632 400.8C618.3 386 636.7 371 668.5 356.2C700.3 341.3 745.7 326.7 761.5 311.8C777.3 297 763.7 282 754.7 267.2C745.7 252.3 741.3 237.7 748.2 222.8C755 208 773 193 747.8 178.2C722.7 163.3 654.3 148.7 654.3 133.8C654.3 119 722.7 104 750 89.2C777.3 74.3 763.7 59.7 750 44.8C736.3 30 722.7 15 715.8 7.5L709 0L861 0L856.3 7.5C851.7 15 842.3 30 842.3 44.8C842.3 59.7 851.7 74.3 842.7 89.2C833.7 104 806.3 119 822.2 133.8C838 148.7 897 163.3 910.7 178.2C924.3 193 892.7 208 883.7 222.8C874.7 237.7 888.3 252.3 906.5 267.2C924.7 282 947.3 297 922.2 311.8C897 326.7 824 341.3 787.5 356.2C751 371 751 386 776.2 400.8C801.3 415.7 851.7 430.3 872.2 445.2C892.7 460 883.3 475 885.5 489.8C887.7 504.7 901.3 519.3 912.8 534.2C924.3 549 933.7 564 952 578.8C970.3 593.7 997.7 608.3 984 623.2C970.3 638 915.7 653 897.3 667.8C879 682.7 897 697.3 903.8 712.2C910.7 727 906.3 742 879 756.8C851.7 771.7 801.3 786.3 762.5 801.2C723.7 816 696.3 831 712.3 845.8C728.3 860.7 787.7 875.3 808.2 890.2C828.7 905 810.3 920 796.7 934.8C783 949.7 774 964.3 780.8 979.2C787.7 994 810.3 1009 821.7 1016.5L833 1024Z" fill="#ff6b37"></path><path d="M286 1024L304.2 1016.5C322.3 1009 358.7 994 363.2 979.2C367.7 964.3 340.3 949.7 324.5 934.8C308.7 920 304.3 905 299.8 890.2C295.3 875.3 290.7 860.7 306.5 845.8C322.3 831 358.7 816 392.8 801.2C427 786.3 459 771.7 440.8 756.8C422.7 742 354.3 727 327 712.2C299.7 697.3 313.3 682.7 340.7 667.8C368 653 409 638 420.3 623.2C431.7 608.3 413.3 593.7 401.8 578.8C390.3 564 385.7 549 410.7 534.2C435.7 519.3 490.3 504.7 476.8 489.8C463.3 475 381.7 460 327.2 445.2C272.7 430.3 245.3 415.7 268 400.8C290.7 386 363.3 371 406.5 356.2C449.7 341.3 463.3 326.7 479.3 311.8C495.3 297 513.7 282 509.2 267.2C504.7 252.3 477.3 237.7 463.7 222.8C450 208 450 193 445.3 178.2C440.7 163.3 431.3 148.7 438.2 133.8C445 119 468 104 481.7 89.2C495.3 74.3 499.7 59.7 488.2 44.8C476.7 30 449.3 15 435.7 7.5L422 0L710 0L716.8 7.5C723.7 15 737.3 30 751 44.8C764.7 59.7 778.3 74.3 751 89.2C723.7 104 655.3 119 655.3 133.8C655.3 148.7 723.7 163.3 748.8 178.2C774 193 756 208 749.2 222.8C742.3 237.7 746.7 252.3 755.7 267.2C764.7 282 778.3 297 762.5 311.8C746.7 326.7 701.3 341.3 669.5 356.2C637.7 371 619.3 386 633 400.8C646.7 415.7 692.3 430.3 717.3 445.2C742.3 460 746.7 475 748.8 489.8C751 504.7 751 519.3 755.7 534.2C760.3 549 769.7 564 776.5 578.8C783.3 593.7 787.7 608.3 769.3 623.2C751 638 710 653 698.7 667.8C687.3 682.7 705.7 697.3 730.8 712.2C756 727 788 742 769.8 756.8C751.7 771.7 683.3 786.3 628.7 801.2C574 816 533 831 537.5 845.8C542 860.7 592 875.3 614.7 890.2C637.3 905 632.7 920 641.8 934.8C651 949.7 674 964.3 671.8 979.2C669.7 994 642.3 1009 628.7 1016.5L615 1024Z" fill="#ff6232"></path><path d="M54 1024L54 1016.5C54 1009 54 994 63 979.2C72 964.3 90 949.7 101.3 934.8C112.7 920 117.3 905 106 890.2C94.7 875.3 67.3 860.7 62.8 845.8C58.3 831 76.7 816 81.2 801.2C85.7 786.3 76.3 771.7 80.8 756.8C85.3 742 103.7 727 101.5 712.2C99.3 697.3 76.7 682.7 67.5 667.8C58.3 653 62.7 638 62.7 623.2C62.7 608.3 58.3 593.7 65.2 578.8C72 564 90 549 94.5 534.2C99 519.3 90 504.7 78.7 489.8C67.3 475 53.7 460 56 445.2C58.3 430.3 76.7 415.7 79 400.8C81.3 386 67.7 371 72.2 356.2C76.7 341.3 99.3 326.7 101.5 311.8C103.7 297 85.3 282 74 267.2C62.7 252.3 58.3 237.7 53.8 222.8C49.3 208 44.7 193 49.2 178.2C53.7 163.3 67.3 148.7 76.5 133.8C85.7 119 90.3 104 88 89.2C85.7 74.3 76.3 59.7 80.8 44.8C85.3 30 103.7 15 112.8 7.5L122 0L423 0L436.7 7.5C450.3 15 477.7 30 489.2 44.8C500.7 59.7 496.3 74.3 482.7 89.2C469 104 446 119 439.2 133.8C432.3 148.7 441.7 163.3 446.3 178.2C451 193 451 208 464.7 222.8C478.3 237.7 505.7 252.3 510.2 267.2C514.7 282 496.3 297 480.3 311.8C464.3 326.7 450.7 341.3 407.5 356.2C364.3 371 291.7 386 269 400.8C246.3 415.7 273.7 430.3 328.2 445.2C382.7 460 464.3 475 477.8 489.8C491.3 504.7 436.7 519.3 411.7 534.2C386.7 549 391.3 564 402.8 578.8C414.3 593.7 432.7 608.3 421.3 623.2C410 638 369 653 341.7 667.8C314.3 682.7 300.7 697.3 328 712.2C355.3 727 423.7 742 441.8 756.8C460 771.7 428 786.3 393.8 801.2C359.7 816 323.3 831 307.5 845.8C291.7 860.7 296.3 875.3 300.8 890.2C305.3 905 309.7 920 325.5 934.8C341.3 949.7 368.7 964.3 364.2 979.2C359.7 994 323.3 1009 305.2 1016.5L287 1024Z" fill="#ff582d"></path><path d="M0 1024L0 1016.5C0 1009 0 994 0 979.2C0 964.3 0 949.7 0 934.8C0 920 0 905 0 890.2C0 875.3 0 860.7 0 845.8C0 831 0 816 0 801.2C0 786.3 0 771.7 0 756.8C0 742 0 727 0 712.2C0 697.3 0 682.7 0 667.8C0 653 0 638 0 623.2C0 608.3 0 593.7 0 578.8C0 564 0 549 0 534.2C0 519.3 0 504.7 0 489.8C0 475 0 460 0 445.2C0 430.3 0 415.7 0 400.8C0 386 0 371 0 356.2C0 341.3 0 326.7 0 311.8C0 297 0 282 0 267.2C0 252.3 0 237.7 0 222.8C0 208 0 193 0 178.2C0 163.3 0 148.7 0 133.8C0 119 0 104 0 89.2C0 74.3 0 59.7 0 44.8C0 30 0 15 0 7.5L0 0L123 0L113.8 7.5C104.7 15 86.3 30 81.8 44.8C77.3 59.7 86.7 74.3 89 89.2C91.3 104 86.7 119 77.5 133.8C68.3 148.7 54.7 163.3 50.2 178.2C45.7 193 50.3 208 54.8 222.8C59.3 237.7 63.7 252.3 75 267.2C86.3 282 104.7 297 102.5 311.8C100.3 326.7 77.7 341.3 73.2 356.2C68.7 371 82.3 386 80 400.8C77.7 415.7 59.3 430.3 57 445.2C54.7 460 68.3 475 79.7 489.8C91 504.7 100 519.3 95.5 534.2C91 549 73 564 66.2 578.8C59.3 593.7 63.7 608.3 63.7 623.2C63.7 638 59.3 653 68.5 667.8C77.7 682.7 100.3 697.3 102.5 712.2C104.7 727 86.3 742 81.8 756.8C77.3 771.7 86.7 786.3 82.2 801.2C77.7 816 59.3 831 63.8 845.8C68.3 860.7 95.7 875.3 107 890.2C118.3 905 113.7 920 102.3 934.8C91 949.7 73 964.3 64 979.2C55 994 55 1009 55 1016.5L55 1024Z" fill="#ff4d28"></path></svg>